<svg width="319" height="102" viewBox="0 0 319 102" fill="none" xmlns="http://www.w3.org/2000/svg">
<path d="M58 48.8003H62.0571V55.7987C62.0571 57.1511 62.4459 58.1146 63.2235 58.6894C64.0011 59.2303 65.066 59.5008 66.4184 59.5008C66.9931 59.5008 67.6355 59.3994 68.3455 59.1965C69.0555 58.9937 69.6471 58.757 70.1204 58.4865C70.3233 58.6894 70.5092 58.9429 70.6783 59.2472C70.8473 59.5515 70.9319 59.9065 70.9319 60.3122C70.9319 61.056 70.4923 61.6646 69.6133 62.1379C68.7343 62.6112 67.5172 62.8479 65.962 62.8479C63.5954 62.8479 61.6683 62.3238 60.1807 61.2758C58.7269 60.2277 58 58.4865 58 56.0523V48.8003ZM60.0792 42.6133V39.2662H70.374C70.4754 39.4015 70.5769 39.6212 70.6783 39.9255C70.7797 40.2298 70.8304 40.551 70.8304 40.8891C70.8304 41.43 70.6952 41.8526 70.4247 42.1569C70.1543 42.4612 69.7824 42.6133 69.309 42.6133H60.0792ZM62.0571 50.3217H58V31.9636C58.169 31.8959 58.4226 31.8283 58.7607 31.7607C59.1326 31.6593 59.5214 31.6086 59.9271 31.6086C60.6371 31.6086 61.1611 31.7607 61.4992 32.065C61.8711 32.3354 62.0571 32.7919 62.0571 33.4342V50.3217Z" fill="#06B1EA"/>
<path d="M97.8312 50.4739C97.8312 52.9757 97.3579 55.1564 96.4113 57.0158C95.4646 58.8753 94.1292 60.3122 92.4049 61.3265C90.6807 62.3407 88.6521 62.8479 86.3193 62.8479C83.9865 62.8479 81.9411 62.3407 80.183 61.3265C78.4588 60.3122 77.1234 58.8753 76.1767 57.0158C75.2301 55.1564 74.7567 52.9757 74.7567 50.4739C74.7567 47.9382 75.2301 45.7575 76.1767 43.9319C77.1572 42.0724 78.5095 40.6355 80.2338 39.6212C81.9918 38.607 84.0203 38.0998 86.3193 38.0998C88.6183 38.0998 90.63 38.607 92.3542 39.6212C94.0784 40.6355 95.4139 42.0724 96.3605 43.9319C97.341 45.7575 97.8312 47.9382 97.8312 50.4739ZM86.3193 41.4469C84.0541 41.4469 82.2454 42.2583 80.893 43.8811C79.5745 45.4702 78.9152 47.6677 78.9152 50.4739C78.9152 53.3138 79.5576 55.5283 80.8423 57.1173C82.1609 58.7063 83.9865 59.5008 86.3193 59.5008C88.6183 59.5008 90.4102 58.7063 91.6949 57.1173C93.0135 55.4945 93.6727 53.28 93.6727 50.4739C93.6727 47.6677 93.0135 45.4702 91.6949 43.8811C90.4102 42.2583 88.6183 41.4469 86.3193 41.4469Z" fill="#06B1EA"/>
<path d="M108.062 46.0618L114.705 44.6926C117.816 47.8706 120.554 50.7105 122.921 53.2124C125.287 55.6804 127.231 57.6582 128.753 59.1458C128.753 60.2277 128.398 61.0898 127.688 61.7322C127.012 62.3407 126.217 62.645 125.304 62.645C124.324 62.645 123.496 62.3914 122.819 61.8843C122.177 61.3772 121.535 60.7855 120.892 60.1094L108.062 46.0618ZM115.01 48.2932L107.301 48.2425L122.971 31.1521C124.527 31.1859 125.659 31.5071 126.369 32.1157C127.079 32.7242 127.434 33.468 127.434 34.3471C127.434 34.9894 127.265 35.598 126.927 36.1727C126.623 36.7475 126.116 37.373 125.406 38.0491L115.01 48.2932ZM104.208 41.7512H110.648V62.1379C110.378 62.2055 109.955 62.29 109.38 62.3914C108.839 62.4929 108.265 62.5436 107.656 62.5436C106.439 62.5436 105.56 62.3238 105.019 61.8843C104.478 61.411 104.208 60.6334 104.208 59.5515V41.7512ZM110.648 49.1553H104.208V31.4057C104.512 31.3381 104.934 31.2536 105.475 31.1521C106.05 31.0507 106.625 31 107.2 31C108.417 31 109.296 31.2198 109.837 31.6593C110.378 32.065 110.648 32.8426 110.648 33.9921V49.1553Z" fill="#06B1EA"/>
<path d="M157.094 46.3154V50.981H148.472V46.5689C148.472 45.5209 148.151 44.7602 147.509 44.2868C146.9 43.7797 146.089 43.5261 145.074 43.5261C144.398 43.5261 143.756 43.6107 143.147 43.7797C142.573 43.9488 142.015 44.1685 141.474 44.439V50.981H132.853V43.2726C132.853 42.3597 133.039 41.616 133.41 41.0412C133.816 40.4665 134.357 39.9424 135.033 39.4691C136.183 38.6577 137.637 38.0153 139.395 37.542C141.153 37.0349 143.08 36.7813 145.176 36.7813C148.996 36.7813 151.938 37.6265 154 39.317C156.062 40.9736 157.094 43.3064 157.094 46.3154ZM132.853 48.8003H141.474V62.1379C141.102 62.2393 140.561 62.3407 139.851 62.4422C139.175 62.5436 138.431 62.5943 137.62 62.5943C135.963 62.5943 134.746 62.3069 133.968 61.7322C133.225 61.1574 132.853 60.0924 132.853 58.5372V48.8003ZM148.472 48.8003H157.094V62.1379C156.722 62.2393 156.181 62.3407 155.471 62.4422C154.795 62.5436 154.051 62.5943 153.239 62.5943C151.583 62.5943 150.366 62.3069 149.588 61.7322C148.844 61.1574 148.472 60.0924 148.472 58.5372V48.8003Z" fill="#06B1EA"/>
<path d="M187.927 49.8653C187.927 52.57 187.37 54.9028 186.254 56.8637C185.172 58.8246 183.634 60.346 181.639 61.4279C179.678 62.476 177.345 63 174.641 63C171.97 63 169.637 62.476 167.642 61.4279C165.648 60.3798 164.092 58.8753 162.977 56.9144C161.895 54.9535 161.354 52.6038 161.354 49.8653C161.354 47.1944 161.912 44.8785 163.027 42.9176C164.143 40.9567 165.698 39.4522 167.693 38.4041C169.688 37.3222 172.004 36.7813 174.641 36.7813C177.312 36.7813 179.627 37.3222 181.588 38.4041C183.583 39.486 185.138 41.0074 186.254 42.9683C187.37 44.9292 187.927 47.2282 187.927 49.8653ZM174.641 43.5261C173.254 43.5261 172.156 44.084 171.344 45.1997C170.567 46.2816 170.178 47.8368 170.178 49.8653C170.178 51.9614 170.567 53.5505 171.344 54.6323C172.122 55.7142 173.221 56.2551 174.641 56.2551C176.061 56.2551 177.159 55.7142 177.937 54.6323C178.715 53.5166 179.103 51.9276 179.103 49.8653C179.103 47.8706 178.698 46.3154 177.886 45.1997C177.109 44.084 176.027 43.5261 174.641 43.5261Z" fill="#06B1EA"/>
<path d="M209.485 48.3439C209.18 49.8991 208.775 51.5219 208.267 53.2124C207.794 54.9028 207.338 56.4749 206.898 57.9287C206.459 59.3825 206.121 60.5151 205.884 61.3265C205.444 61.7322 204.802 62.0534 203.957 62.29C203.145 62.5605 202.182 62.6957 201.066 62.6957C199.714 62.6957 198.514 62.5098 197.466 62.1379C196.451 61.7322 195.775 61.1743 195.437 60.4643C195.133 59.7882 194.795 58.8415 194.423 57.6244C194.051 56.3735 193.662 54.9535 193.256 53.3645C192.884 51.7417 192.513 50.0681 192.141 48.3439C191.769 46.5858 191.431 44.8954 191.126 43.2726C190.822 41.616 190.569 40.1284 190.366 38.8098C190.839 38.3365 191.464 37.9308 192.242 37.5927C193.053 37.2208 193.933 37.0349 194.879 37.0349C196.062 37.0349 197.026 37.3053 197.77 37.8463C198.547 38.3534 199.021 39.2493 199.19 40.5341C199.528 43.1035 199.815 45.2335 200.052 46.9239C200.289 48.6144 200.475 49.9836 200.61 51.0317C200.779 52.046 200.897 52.8405 200.965 53.4152C201.066 53.99 201.151 54.4464 201.218 54.7845H201.421C201.59 54.0407 201.861 52.9081 202.233 51.3867C202.604 49.8315 203.044 48.0565 203.551 46.0618C204.058 44.0671 204.548 42.0555 205.022 40.0269C205.698 39.655 206.374 39.3677 207.05 39.1648C207.726 38.962 208.538 38.8605 209.485 38.8605C210.668 38.8605 211.682 39.0465 212.527 39.4184C213.373 39.7903 213.913 40.365 214.15 41.1426C214.691 43.1035 215.198 44.9968 215.672 46.8225C216.145 48.6482 216.551 50.2541 216.889 51.6403C217.261 53.0264 217.514 54.0745 217.649 54.7845H217.903C218.275 52.1812 218.63 49.4765 218.968 46.6704C219.34 43.8304 219.678 40.9736 219.982 38.0998C221.199 37.3899 222.518 37.0349 223.938 37.0349C225.121 37.0349 226.102 37.2884 226.879 37.7956C227.657 38.3027 228.046 39.1817 228.046 40.4326C228.046 40.9736 227.961 41.785 227.792 42.8669C227.623 43.9149 227.403 45.1152 227.133 46.4675C226.862 47.8199 226.541 49.2398 226.169 50.7274C225.831 52.215 225.476 53.6519 225.104 55.038C224.766 56.4242 224.428 57.6751 224.09 58.7908C223.786 59.8727 223.515 60.7179 223.279 61.3265C222.839 61.7322 222.112 62.0534 221.098 62.29C220.117 62.5605 219.069 62.6957 217.954 62.6957C215.114 62.6957 213.44 61.9857 212.933 60.5658C212.663 59.7544 212.308 58.6894 211.868 57.3708C211.429 56.0185 210.989 54.5478 210.55 52.9588C210.144 51.3698 209.789 49.8315 209.485 48.3439Z" fill="#06B1EA"/>
<path d="M256.232 41.4477L243.649 35.2559C239.769 33.3468 237.829 32.3922 236.415 33.2728C235 34.1534 235 36.3154 235 40.6394V53.2227C235 57.6011 235 59.7902 236.431 60.6683C237.862 61.5464 239.814 60.555 243.717 58.5722L256.301 52.1807C260.969 49.8094 263.303 48.6237 263.292 46.7696C263.28 44.9155 260.931 43.7595 256.232 41.4477Z" fill="#006688"/>
<rect x="32" y="31" width="16" height="32" fill="#C2E8FF"/>
<path d="M0 41C0 35.4772 4.47715 31 10 31H32V63H10C4.47715 63 0 58.5228 0 53V41Z" fill="#FFDDBA"/>
</svg>
