<svg width="385" height="409" viewBox="0 0 385 409" fill="none" xmlns="http://www.w3.org/2000/svg">
<g clip-path="url(#clip0_185_3912)">
<path d="M93.3785 408.68C91.1385 406.45 89.8085 403.72 88.6985 400.79C79.4385 376.53 70.4285 352.16 60.6885 328.09C55.5585 315.41 50.2385 302.9 47.6985 289.37C41.3585 255.52 45.8085 223.14 62.0585 192.85C66.6485 184.29 67.3785 175.49 68.4885 166.52C71.4185 142.92 74.0085 119.28 76.7985 95.66C77.6385 88.58 81.4785 86.6 87.9185 89.82C107.249 99.47 126.589 109.12 145.879 118.86C148.039 119.95 149.979 120.16 152.289 119.51C179.009 111.95 205.759 111.98 232.479 119.54C234.819 120.2 236.749 119.91 238.879 118.83C258.059 109.16 277.279 99.58 296.489 89.99C303.389 86.55 307.079 88.55 307.959 96.14C311.239 124.38 314.539 152.62 317.809 180.87C318.099 183.4 318.809 185.74 320.129 187.97C326.069 198.07 330.599 208.8 333.839 220.06C335.249 224.96 334.629 226.7 330.359 229.29C325.139 229.34 323.939 228.56 322.359 223.45C318.889 212.25 314.389 201.51 308.279 191.48C307.159 189.65 306.559 187.67 306.309 185.5C303.249 159.37 300.039 133.26 297.099 107.11C296.709 103.62 295.999 103.64 293.209 105.06C276.179 113.72 259.039 122.16 241.999 130.79C238.609 132.51 235.439 132.96 231.699 131.83C205.419 123.91 179.079 123.97 152.799 131.86C149.389 132.88 146.439 132.64 143.249 131.02C125.969 122.26 108.599 113.7 91.3085 104.96C88.7785 103.68 87.9785 103.59 87.6085 106.9C85.0785 129.88 82.1985 152.83 79.6685 175.81C78.7885 183.82 77.1085 191.3 72.6985 198.31C68.9785 204.22 66.2085 210.77 64.5385 217.66C64.3685 217.86 64.1285 218.04 64.0585 218.27C54.7785 246.42 54.5285 274.72 63.6985 302.84C74.4885 335.92 95.2385 361.25 125.349 378.68C150.759 393.38 178.309 398.83 207.409 395.72C228.859 393.42 248.759 386.22 266.729 374.2C280.189 365.2 292.099 354.48 301.249 340.95C301.659 340.39 302.059 339.82 302.469 339.26C302.869 338.76 303.269 338.25 303.669 337.75C309.489 329.82 313.989 321.15 317.689 312.06C325.409 293.13 328.539 273.41 327.299 253.02C327.029 248.66 328.219 245.45 332.789 244.22C338.079 245.39 339.019 246.63 339.369 252.03C341.039 277.78 335.409 301.9 325.179 325.54C314.819 349.49 306.219 374.19 296.829 398.55C295.439 402.17 294.369 405.97 291.319 408.69H267.379C265.079 407.02 263.579 404.85 262.929 402.03C262.419 399.84 261.439 397.76 261.029 395.56C260.499 392.68 259.409 392.37 256.839 393.66C242.749 400.72 227.849 405.15 212.239 407.35C209.609 407.72 206.749 407.1 204.319 408.69H178.779C178.559 407.83 177.839 407.94 177.199 407.88C160.039 406.08 143.649 401.55 128.199 393.85C125.219 392.37 124.459 392.89 123.519 395.93C122.119 400.45 121.939 405.7 117.319 408.69H93.3785V408.68ZM88.8085 367.32C92.3385 376.49 95.8785 385.66 99.4085 394.84C99.7985 395.87 100.229 396.52 101.569 396.7C109.469 397.79 110.629 397.12 112.949 389.61C113.029 389.36 113.109 389.1 113.219 388.86C114.169 386.83 113.559 385.62 111.619 384.39C104.209 379.7 97.3885 374.22 91.0185 368.18C90.4885 367.68 90.0585 366.83 88.8185 367.31L88.8085 367.32ZM295.639 367.75C295.369 367.54 295.099 367.34 294.829 367.13C287.809 373.83 280.269 379.87 272.129 385.12C271.309 385.65 270.949 386.18 271.099 387.37C272.089 395.32 273.679 396.69 281.639 396.71C283.809 396.71 284.999 396.2 285.699 394.03C286.799 390.63 288.239 387.34 289.509 384C291.569 378.59 293.609 373.17 295.659 367.75H295.639Z" fill="#030403"/>
<path d="M204.32 408.68C206.75 407.09 209.61 407.71 212.24 407.34C227.85 405.14 242.75 400.71 256.84 393.65C259.4 392.36 260.49 392.67 261.03 395.55C261.44 397.75 262.42 399.83 262.93 402.02C263.58 404.84 265.08 407.01 267.38 408.68H204.33H204.32Z" fill="#FDFDFD"/>
<path d="M117.32 408.68C121.94 405.69 122.13 400.43 123.52 395.92C124.46 392.88 125.23 392.35 128.2 393.84C143.64 401.54 160.04 406.07 177.2 407.87C177.83 407.94 178.55 407.82 178.78 408.68H117.32Z" fill="#FDFDFD"/>
<path d="M332.79 244.21C328.23 245.44 327.04 248.65 327.3 253.01C328.54 273.4 325.41 293.11 317.69 312.05C313.99 321.13 309.49 329.8 303.67 337.74C302.76 337.84 302.49 338.45 302.47 339.25C302.06 339.81 301.66 340.38 301.25 340.94C300.42 340.81 299.68 341 299.01 341.52C295.27 344.47 291.64 347.56 287.77 350.33C266.25 365.7 242.21 374.66 215.91 376.58C195.95 378.04 176.34 375.35 157.33 368.49C128.41 358.06 105.37 339.98 88.1497 314.83C71.5497 290.58 63.8797 263.33 63.7697 233.91C63.7497 228.46 65.2297 223.11 64.5497 217.65C66.2197 210.75 68.9897 204.21 72.7097 198.3C77.1197 191.29 78.7997 183.81 79.6797 175.8C82.2197 152.82 85.0897 129.88 87.6197 106.89C87.9797 103.59 88.7797 103.67 91.3197 104.95C108.61 113.69 125.98 122.25 143.26 131.01C146.45 132.63 149.4 132.87 152.81 131.85C179.09 123.96 205.43 123.9 231.71 131.82C235.44 132.94 238.61 132.5 242.01 130.78C259.05 122.15 276.19 113.71 293.22 105.05C296.01 103.63 296.72 103.62 297.11 107.1C300.05 133.24 303.26 159.36 306.32 185.49C306.57 187.66 307.18 189.64 308.29 191.47C314.4 201.5 318.91 212.24 322.37 223.44C323.95 228.55 325.15 229.32 330.37 229.28C331.18 234.26 331.98 239.24 332.79 244.21V244.21ZM189.6 216.82C179.46 217.22 170.35 220.4 162.04 226.11C145.72 237.32 143.03 258.56 156.27 271.98C175.41 291.38 209.45 291.37 228.47 271.95C238.39 261.82 239.81 246.99 231.66 235.51C221.36 221.01 206.42 216.71 189.6 216.81V216.82ZM192.29 312.21C206.01 312.33 219.22 309.7 231.99 304.81C239.19 302.05 246.01 298.46 252.42 294.16C256.12 291.68 257.15 288.51 255.31 285.43C253.37 282.19 249.98 281.67 245.93 284.03C244.67 284.76 243.47 285.61 242.21 286.35C221.62 298.47 199.55 302.66 175.95 298.74C162.93 296.58 150.95 291.82 139.87 284.7C137.72 283.32 135.55 281.93 132.84 282.74C130.48 283.45 128.99 285.15 128.62 287.56C128.12 290.77 130.02 292.71 132.51 294.34C150.68 306.19 170.61 312.11 192.28 312.21H192.29ZM296.61 164.87C294.98 151.24 293.47 137.27 291.57 123.34C290.87 118.22 286.87 116.46 282.04 118.81C270.97 124.2 259.94 129.7 248.98 135.31C244 137.85 243.68 143.41 248.38 146.41C261.23 154.6 274.16 162.69 287.16 170.64C291.73 173.43 296.53 170.5 296.61 164.87V164.87ZM88.0397 165.59C88.0097 167.41 88.8297 169.52 91.1497 170.87C93.4897 172.23 95.7297 171.84 97.8997 170.48C110.62 162.54 123.36 154.65 136.02 146.62C141.28 143.28 140.99 138 135.41 135.16C124.66 129.68 113.87 124.29 103.04 118.97C97.6897 116.34 93.6697 118.29 92.9097 124.12C91.1497 137.68 89.6897 151.27 88.0197 165.6L88.0397 165.59ZM153.3 208.67C153.02 203.25 150.56 198.25 145.61 194.71C139.62 190.42 133.11 189.71 126.43 192.92C119.93 196.05 116.34 201.37 115.77 208.58C115.46 212.5 117.4 215.12 120.64 215.62C124.25 216.18 126.75 214.26 127.65 210.23C127.85 209.33 127.97 208.39 128.27 207.52C129.27 204.68 131.49 203.22 134.34 203.16C137.37 203.09 139.69 204.6 140.79 207.56C141.15 208.54 141.21 209.64 141.47 210.66C142.33 214.06 144.38 215.97 148.04 215.65C151.24 215.37 153.26 212.9 153.31 208.67H153.3ZM269 209.05C268.92 199.47 260.18 191 250.29 190.92C240.29 190.84 231.36 199.52 231.41 209.26C231.43 212.87 233.4 215.33 236.6 215.65C240.26 216.01 242.34 214.13 243.22 210.73C243.42 209.96 243.41 209.14 243.63 208.38C244.57 205.02 246.91 203.13 250.3 203.16C253.5 203.2 255.78 204.99 256.68 208.21C256.89 208.97 256.93 209.78 257.11 210.56C257.99 214.27 260.54 216.21 263.99 215.61C267.6 214.98 269.01 212.52 268.99 209.06L269 209.05Z" fill="#39D1EA"/>
<path d="M136.738 55.54C136.778 25.02 161.848 -0.009997 192.368 2.99536e-06C222.898 0.010003 247.968 25.08 247.958 55.58C247.958 86.12 222.938 111.08 192.338 111.07C161.748 111.07 136.688 86.05 136.738 55.55V55.54ZM235.828 55.56C235.818 31.68 216.388 12.13 192.548 12.02C168.568 11.91 148.878 31.54 148.878 55.57C148.878 79.63 168.448 99.11 192.558 99.03C216.448 98.95 235.838 79.47 235.828 55.57V55.56Z" fill="#030403"/>
<path d="M289.15 11.0899C291.69 11.1999 293.66 12.6899 294.48 15.5799C294.69 16.3299 294.69 17.1599 294.72 17.9499C294.887 21.8033 296.81 23.7799 300.49 23.8799C304.9 23.9999 307.44 26.1399 307.49 29.7599C307.54 33.3899 304.96 35.7299 300.68 35.8999C299.75 35.9399 298.8 36.0299 297.89 35.8799C295.13 35.4299 294.39 36.7299 294.7 39.2199C294.83 40.2699 294.77 41.3499 294.7 42.3999C294.45 46.1299 292.11 48.6199 288.84 48.6599C285.62 48.7099 283.2 46.2799 282.69 42.5799C282.39 40.3999 283.74 37.5099 281.98 36.2299C280.57 35.1999 277.88 36.0299 275.78 35.8299C272.36 35.5099 269.91 32.9799 269.86 29.9199C269.81 26.6799 272.37 24.2099 276.03 23.8799C278.12 23.6899 280.75 24.7899 282.16 23.3899C283.58 21.9899 282.44 19.3499 282.68 17.2699C283.13 13.3899 285.32 11.1099 289.14 11.0699L289.15 11.0899Z" fill="#030403"/>
<path d="M365.799 209.29C362.839 209.25 360.869 207.61 360.069 204.54C359.909 203.91 359.929 203.22 359.909 202.56C359.756 198.693 357.739 196.677 353.859 196.51C349.659 196.33 347.239 194.27 347.129 190.76C347.009 187.08 349.509 184.74 353.829 184.47C357.649 184.237 359.679 182.12 359.919 178.12C360.149 174.33 362.399 171.82 365.679 171.69C369.059 171.55 371.629 174.19 371.929 178.09C371.949 178.35 371.929 178.62 371.939 178.89C372.052 182.47 373.916 184.33 377.529 184.47C382.079 184.65 384.819 187.05 384.689 190.75C384.569 194.25 381.899 196.4 377.519 196.52C376.589 196.54 375.639 196.63 374.729 196.5C372.399 196.17 371.669 197.18 371.899 199.4C372.049 200.84 372.019 202.33 371.839 203.78C371.439 207.07 369.129 209.21 365.799 209.3V209.29Z" fill="#030403"/>
<path d="M37.5903 151.93C37.5403 154.8 36.1003 156.71 33.4403 157.62C32.4603 157.96 31.3603 158 30.3003 158.03C24.9503 158.19 24.9503 158.18 24.7903 163.75C24.6603 168.11 22.4203 170.78 18.8803 170.81C15.3203 170.84 12.9503 168.16 12.7703 163.88C12.6169 160.207 10.5703 158.26 6.63026 158.04C2.62026 157.8 0.0302559 155.46 0.000255917 152.03C-0.0297441 148.6 2.58026 146.19 6.55026 146.01C7.61026 145.96 8.70026 145.87 9.74026 146.02C12.2103 146.39 13.1203 145.47 12.8203 142.98C12.6403 141.54 12.7003 140.04 12.9003 138.6C13.3803 135.17 15.9503 132.99 19.2003 133.25C22.6303 133.53 24.3803 135.59 24.7803 138.92C25.0403 141.14 23.8503 143.94 25.3103 145.45C26.7903 146.98 29.6003 145.77 31.8203 146.01C35.2803 146.39 37.5903 148.71 37.6203 151.92L37.5903 151.93Z" fill="#030403"/>
<path d="M64.5516 217.65C65.2416 223.11 63.7516 228.45 63.7716 233.91C63.8816 263.33 71.5516 290.59 88.1516 314.83C105.372 339.98 128.422 358.06 157.332 368.49C176.342 375.35 195.952 378.04 215.912 376.58C242.212 374.66 266.252 365.7 287.772 350.33C291.642 347.57 295.282 344.47 299.012 341.52C299.682 340.99 300.422 340.81 301.252 340.94C292.092 354.46 280.182 365.19 266.732 374.19C248.762 386.21 228.862 393.41 207.412 395.71C178.322 398.82 150.762 393.38 125.352 378.67C95.2416 361.25 74.4916 335.91 63.7016 302.83C54.5316 274.71 54.7816 246.41 64.0616 218.26C64.1416 218.03 64.3816 217.85 64.5416 217.65H64.5516Z" fill="#00AEB7"/>
<path d="M88.8108 367.33C90.0508 366.85 90.4808 367.7 91.0108 368.2C97.3808 374.24 104.201 379.71 111.611 384.41C113.551 385.64 114.161 386.85 113.211 388.88C113.101 389.12 113.021 389.37 112.941 389.63C110.621 397.14 109.461 397.81 101.561 396.72C100.221 396.54 99.8008 395.88 99.4008 394.86C95.8808 385.68 92.3408 376.51 88.8008 367.34L88.8108 367.33Z" fill="#00AEB7"/>
<path d="M295.64 367.76C293.59 373.18 291.55 378.6 289.49 384.01C288.22 387.35 286.78 390.64 285.68 394.04C284.98 396.21 283.79 396.73 281.62 396.72C273.66 396.7 272.07 395.33 271.08 387.38C270.93 386.19 271.29 385.66 272.11 385.13C280.25 379.87 287.79 373.84 294.81 367.14C295.08 367.35 295.35 367.55 295.62 367.76H295.64Z" fill="#00AEB7"/>
<path d="M302.48 339.25C302.5 338.44 302.77 337.84 303.68 337.74C303.28 338.24 302.88 338.75 302.48 339.25Z" fill="#54D2BC"/>
<path d="M189.601 216.82C206.421 216.72 221.361 221.01 231.661 235.52C239.811 247 238.381 261.83 228.471 271.96C209.461 291.37 175.411 291.39 156.271 271.99C143.031 258.57 145.731 237.32 162.041 226.12C170.351 220.41 179.461 217.23 189.601 216.83V216.82ZM224.241 249.01C224.011 244.28 221.331 240.82 218.051 237.85C205.661 226.63 181.971 225.78 168.761 236.04C164.491 239.36 160.911 243.2 160.451 249C158.901 253.92 160.651 258.16 163.481 261.96C175.941 278.68 208.771 278.68 221.211 261.95C224.031 258.16 225.791 253.91 224.241 249V249.01Z" fill="#030403"/>
<path d="M192.291 312.21C170.621 312.1 150.691 306.19 132.521 294.34C130.021 292.71 128.131 290.77 128.631 287.56C129.001 285.15 130.491 283.45 132.851 282.74C135.561 281.93 137.731 283.31 139.881 284.7C150.961 291.82 162.941 296.58 175.961 298.74C199.561 302.65 221.631 298.47 242.221 286.35C243.481 285.61 244.671 284.76 245.941 284.03C249.991 281.68 253.381 282.2 255.321 285.43C257.171 288.52 256.131 291.68 252.431 294.16C246.011 298.46 239.201 302.05 232.001 304.81C219.241 309.7 206.021 312.33 192.301 312.21H192.291Z" fill="#030403"/>
<path d="M296.611 164.87C296.531 170.5 291.732 173.44 287.162 170.64C274.152 162.69 261.232 154.6 248.382 146.41C243.682 143.41 244.011 137.86 248.981 135.31C259.951 129.7 270.972 124.2 282.042 118.81C286.872 116.46 290.872 118.22 291.572 123.34C293.472 137.26 294.981 151.24 296.611 164.87V164.87ZM263.331 141.6C270.051 145.78 276.281 149.65 283.121 153.9C282.321 147.08 281.561 141.17 280.991 135.24C280.791 133.13 280.062 133.19 278.512 133.99C273.682 136.47 268.811 138.86 263.331 141.6V141.6Z" fill="#030403"/>
<path d="M88.0391 165.59C89.7091 151.26 91.1691 137.67 92.9291 124.11C93.6791 118.28 97.7091 116.34 103.059 118.96C113.889 124.28 124.679 129.67 135.429 135.15C141.009 137.99 141.299 143.28 136.039 146.61C123.379 154.64 110.629 162.53 97.9191 170.47C95.7491 171.83 93.5091 172.22 91.1691 170.86C88.8391 169.51 88.0191 167.4 88.0591 165.58L88.0391 165.59ZM121.379 141.58C115.309 138.58 109.789 135.85 103.989 132.97C103.179 140.09 102.439 146.59 101.609 153.91C108.489 149.62 114.629 145.78 121.379 141.57V141.58Z" fill="#030403"/>
<path d="M153.301 208.66C153.251 212.89 151.231 215.36 148.031 215.64C144.361 215.96 142.321 214.05 141.461 210.65C141.201 209.62 141.141 208.53 140.781 207.55C139.691 204.59 137.361 203.08 134.331 203.15C131.481 203.21 129.261 204.67 128.261 207.51C127.951 208.38 127.841 209.31 127.641 210.22C126.741 214.25 124.251 216.17 120.631 215.61C117.391 215.11 115.441 212.49 115.761 208.57C116.331 201.37 119.921 196.04 126.421 192.91C133.101 189.7 139.621 190.41 145.601 194.7C150.541 198.24 153.011 203.24 153.291 208.66H153.301Z" fill="#030403"/>
<path d="M268.998 209.04C269.018 212.51 267.608 214.96 263.998 215.59C260.548 216.19 258.008 214.25 257.118 210.54C256.938 209.77 256.898 208.96 256.688 208.19C255.788 204.97 253.508 203.18 250.308 203.14C246.918 203.1 244.578 204.99 243.638 208.36C243.428 209.12 243.428 209.95 243.228 210.71C242.338 214.11 240.268 215.99 236.608 215.63C233.408 215.32 231.438 212.85 231.418 209.24C231.358 199.5 240.288 190.82 250.298 190.9C260.188 190.98 268.938 199.45 269.008 209.03L268.998 209.04Z" fill="#030403"/>
<path d="M235.821 55.56C235.831 79.46 216.441 98.94 192.551 99.02C168.441 99.1 148.871 79.63 148.871 55.56C148.871 31.53 168.561 11.9 192.541 12.01C216.371 12.12 235.811 31.67 235.821 55.55V55.56ZM209.111 82.14L209.061 82.19C209.671 81.99 210.371 81.92 210.891 81.57C222.671 73.6 228.251 56.79 221.621 42.56C218.861 36.64 215.221 31.43 208.891 28.74C206.431 26.28 203.741 24.18 200.101 23.97C198.481 23.88 198.321 22.83 197.951 21.66C197.101 18.98 195.171 17.54 192.351 17.54C189.531 17.54 187.601 18.98 186.751 21.66C186.381 22.83 186.221 23.88 184.601 23.97C180.961 24.18 178.271 26.28 175.811 28.74C175.301 28.85 174.701 28.81 174.291 29.08C162.151 36.93 156.841 53.86 162.541 67.16C165.261 73.51 168.661 79.47 175.641 82.19L175.581 82.14C175.831 82.43 176.081 82.72 176.331 83.01C178.691 84.96 181.041 86.96 184.311 87.06C186.051 87.12 186.351 88.21 186.781 89.59C187.571 92.12 189.471 93.48 192.151 93.55C195.001 93.62 197.051 92.29 197.911 89.58C198.351 88.2 198.661 87.12 200.391 87.06C203.651 86.95 206.011 84.96 208.371 83.01C208.611 82.72 208.861 82.43 209.101 82.14H209.111Z" fill="#F6CD00"/>
<path d="M160.461 249.01C160.921 243.21 164.501 239.36 168.771 236.05C181.981 225.78 205.671 226.63 218.061 237.86C221.341 240.83 224.021 244.28 224.251 249.02C222.051 250.69 219.851 252.35 217.651 254.02C216.021 249.61 212.891 247.82 209.341 249.26C205.901 250.65 204.951 254.13 206.781 258.62C197.171 262.28 187.551 262.27 177.941 258.62C179.811 254.06 178.871 250.74 175.301 249.28C171.801 247.85 168.421 249.7 166.901 253.86C164.761 252.25 162.611 250.63 160.471 249.02L160.461 249.01Z" fill="#FDFDFD"/>
<path d="M177.93 258.6C187.54 262.25 197.16 262.26 206.77 258.6C212.52 262.61 216.58 260.9 217.64 254.01C219.84 252.34 222.04 250.68 224.24 249.01C225.79 253.92 224.04 258.17 221.21 261.96C208.76 278.69 175.94 278.69 163.48 261.97C160.65 258.17 158.91 253.92 160.45 249.01C162.59 250.62 164.74 252.24 166.88 253.85C168.34 261.03 172.09 262.64 177.92 258.61L177.93 258.6Z" fill="#00AEB7"/>
<path d="M263.328 141.6C268.808 138.86 273.688 136.47 278.508 133.99C280.058 133.2 280.788 133.14 280.988 135.24C281.558 141.17 282.328 147.07 283.118 153.9C276.268 149.64 270.048 145.77 263.328 141.6V141.6Z" fill="#00AEB7"/>
<path d="M121.379 141.58C114.629 145.79 108.479 149.63 101.609 153.92C102.439 146.6 103.179 140.1 103.989 132.98C109.799 135.85 115.309 138.58 121.379 141.59V141.58Z" fill="#00AEB7"/>
<path d="M175.81 28.75C178.27 26.29 180.96 24.19 184.6 23.98C186.22 23.89 186.38 22.84 186.75 21.67C187.6 18.99 189.53 17.55 192.35 17.55C195.17 17.55 197.1 18.99 197.95 21.67C198.32 22.84 198.48 23.89 200.1 23.98C203.74 24.19 206.43 26.29 208.89 28.75C209.67 30.57 210.72 32.25 211 34.3C211.52 38.1 210.08 40.9301 206.92 41.9501C203.82 42.9501 201.02 41.5 199.57 37.73C199.03 36.33 198.39 35.99 197.03 35.87C185.73 34.91 184.79 35.8301 185.41 46.9001C185.53 49.0201 186.24 49.62 188.26 49.55C191.84 49.43 195.44 49.42 199.02 49.57C204.41 49.79 209.53 53.08 210.39 57.98C211.81 66.06 212.67 74.31 209.04 82.2L209.09 82.1501C208.85 82.4401 208.6 82.7301 208.36 83.0201C206 84.9701 203.64 86.9601 200.38 87.0701C198.65 87.1301 198.34 88.21 197.9 89.59C197.04 92.3 194.99 93.62 192.14 93.56C189.46 93.5 187.56 92.1301 186.77 89.6001C186.34 88.2201 186.03 87.1201 184.3 87.0701C181.03 86.9601 178.68 84.9701 176.32 83.0201C176.07 82.7301 175.82 82.4401 175.57 82.1501L175.63 82.2C174.6 80.04 173.5 77.86 173.51 75.43C173.54 72.18 174.99 69.7701 178.38 69.0801C181.39 68.4601 183.97 69.74 184.77 72.49C185.54 75.15 186.98 75.2101 189.09 75.2201C199.54 75.2501 199.45 75.2901 199.28 64.7601C199.24 62.0601 198.32 61.3601 195.78 61.4901C192.2 61.6801 188.6 61.6601 185.02 61.4501C179.72 61.1301 175.38 58.3201 174.38 53.3101C172.75 45.1601 171.83 36.73 175.79 28.76L175.81 28.75Z" fill="#030403"/>
<path d="M175.809 28.75C171.849 36.72 172.769 45.15 174.399 53.3C175.399 58.31 179.739 61.11 185.039 61.44C188.619 61.66 192.219 61.67 195.799 61.48C198.339 61.35 199.249 62.05 199.299 64.75C199.469 75.28 199.569 75.25 189.109 75.21C186.999 75.21 185.559 75.15 184.789 72.48C183.989 69.73 181.409 68.45 178.399 69.07C175.009 69.77 173.559 72.17 173.529 75.42C173.509 77.85 174.619 80.03 175.649 82.19C168.659 79.46 165.269 73.5 162.549 67.16C156.849 53.86 162.159 36.93 174.299 29.08C174.709 28.82 175.309 28.85 175.819 28.74L175.809 28.75Z" fill="#F6D83E"/>
<path d="M209.06 82.2C212.69 74.31 211.83 66.06 210.41 57.98C209.55 53.07 204.42 49.79 199.04 49.57C195.46 49.42 191.86 49.43 188.28 49.55C186.27 49.62 185.55 49.03 185.43 46.9C184.81 35.83 185.75 34.91 197.05 35.87C198.41 35.99 199.05 36.33 199.59 37.73C201.03 41.49 203.84 42.95 206.94 41.95C210.1 40.93 211.54 38.1 211.02 34.3C210.74 32.26 209.68 30.57 208.91 28.75C215.23 31.44 218.88 36.65 221.64 42.57C228.27 56.8 222.69 73.61 210.91 81.58C210.4 81.93 209.7 82 209.08 82.2H209.06Z" fill="#F6D83E"/>
<path d="M175.59 82.15C175.84 82.44 176.09 82.73 176.34 83.02C176.09 82.73 175.84 82.44 175.59 82.15Z" fill="#F6D83E"/>
<path d="M208.379 83.01C208.619 82.72 208.869 82.43 209.109 82.14C208.869 82.43 208.619 82.72 208.379 83.01Z" fill="#F6D83E"/>
<path d="M177.931 258.6C172.101 262.63 168.351 261.02 166.891 253.84C168.421 249.67 171.801 247.83 175.291 249.26C178.861 250.72 179.801 254.04 177.931 258.6Z" fill="#030403"/>
<path d="M217.65 254C216.59 260.89 212.53 262.61 206.78 258.59C204.94 254.1 205.89 250.63 209.34 249.23C212.89 247.79 216.02 249.58 217.65 253.99V254Z" fill="#030403"/>
</g>
<defs>
<clipPath id="clip0_185_3912">
<rect width="384.69" height="408.68" fill="white"/>
</clipPath>
</defs>
</svg>
