<?xml version="1.0" encoding="utf-8"?>
<!-- Generator: Adobe Illustrator 27.0.0, SVG Export Plug-In . SVG Version: 6.00 Build 0)  -->
<svg version="1.1" id="Capa_1" xmlns="http://www.w3.org/2000/svg" xmlns:xlink="http://www.w3.org/1999/xlink" x="0px" y="0px"
	 viewBox="0 0 291 56" style="enable-background:new 0 0 291 56;" xml:space="preserve">
<style type="text/css">
	.st0{fill:#06B1EA;}
	.st1{fill:#006688;}
	.st2{fill:#C2E8FF;}
	.st3{fill:#F9A493;}
</style>
<g>
	<path class="st0" d="M71.9,29.8h4.1v7c0,1.4,0.4,2.3,1.2,2.9c0.8,0.5,1.8,0.8,3.2,0.8c0.6,0,1.2-0.1,1.9-0.3
		c0.7-0.2,1.3-0.4,1.8-0.7c0.2,0.2,0.4,0.5,0.6,0.8c0.2,0.3,0.3,0.7,0.3,1.1c0,0.7-0.4,1.4-1.3,1.8c-0.9,0.5-2.1,0.7-3.7,0.7
		c-2.4,0-4.3-0.5-5.8-1.6c-1.5-1-2.2-2.8-2.2-5.2V29.8z M73.9,23.6v-3.3h10.3c0.1,0.1,0.2,0.4,0.3,0.7c0.1,0.3,0.2,0.6,0.2,1
		c0,0.5-0.1,1-0.4,1.3c-0.3,0.3-0.6,0.5-1.1,0.5H73.9z M75.9,31.3h-4.1V13c0.2-0.1,0.4-0.1,0.8-0.2c0.4-0.1,0.8-0.2,1.2-0.2
		c0.7,0,1.2,0.2,1.6,0.5c0.4,0.3,0.6,0.7,0.6,1.4V31.3z"/>
	<path class="st0" d="M111.7,31.5c0,2.5-0.5,4.7-1.4,6.5c-0.9,1.9-2.3,3.3-4,4.3c-1.7,1-3.8,1.5-6.1,1.5c-2.3,0-4.4-0.5-6.1-1.5
		c-1.7-1-3.1-2.5-4-4.3c-0.9-1.9-1.4-4-1.4-6.5c0-2.5,0.5-4.7,1.4-6.5c1-1.9,2.3-3.3,4.1-4.3c1.8-1,3.8-1.5,6.1-1.5
		c2.3,0,4.3,0.5,6,1.5c1.7,1,3.1,2.5,4,4.3C111.2,26.8,111.7,28.9,111.7,31.5z M100.2,22.4c-2.3,0-4.1,0.8-5.4,2.4
		c-1.3,1.6-2,3.8-2,6.6c0,2.8,0.6,5.1,1.9,6.6c1.3,1.6,3.1,2.4,5.5,2.4c2.3,0,4.1-0.8,5.4-2.4c1.3-1.6,2-3.8,2-6.6
		c0-2.8-0.7-5-2-6.6C104.3,23.3,102.5,22.4,100.2,22.4z"/>
	<path class="st0" d="M121.9,27.1l6.6-1.4c3.1,3.2,5.8,6,8.2,8.5c2.4,2.5,4.3,4.4,5.8,5.9c0,1.1-0.4,1.9-1.1,2.6
		c-0.7,0.6-1.5,0.9-2.4,0.9c-1,0-1.8-0.3-2.5-0.8c-0.6-0.5-1.3-1.1-1.9-1.8L121.9,27.1z M128.9,29.3l-7.7-0.1l15.7-17.1
		c1.6,0,2.7,0.4,3.4,1c0.7,0.6,1.1,1.4,1.1,2.2c0,0.6-0.2,1.3-0.5,1.8c-0.3,0.6-0.8,1.2-1.5,1.9L128.9,29.3z M118.1,22.8h6.4v20.4
		c-0.3,0.1-0.7,0.2-1.3,0.3c-0.5,0.1-1.1,0.2-1.7,0.2c-1.2,0-2.1-0.2-2.6-0.7c-0.5-0.5-0.8-1.3-0.8-2.3V22.8z M124.5,30.2h-6.4V12.4
		c0.3-0.1,0.7-0.2,1.3-0.3c0.6-0.1,1.2-0.2,1.7-0.2c1.2,0,2.1,0.2,2.6,0.7c0.5,0.4,0.8,1.2,0.8,2.3V30.2z"/>
	<path class="st0" d="M170.9,27.3V32h-8.6v-4.4c0-1-0.3-1.8-1-2.3c-0.6-0.5-1.4-0.8-2.4-0.8c-0.7,0-1.3,0.1-1.9,0.3
		c-0.6,0.2-1.1,0.4-1.7,0.7V32h-8.6v-7.7c0-0.9,0.2-1.7,0.6-2.2c0.4-0.6,0.9-1.1,1.6-1.6c1.1-0.8,2.6-1.5,4.4-1.9
		c1.8-0.5,3.7-0.8,5.8-0.8c3.8,0,6.8,0.8,8.8,2.5C169.9,22,170.9,24.3,170.9,27.3z M146.7,29.8h8.6v13.3c-0.4,0.1-0.9,0.2-1.6,0.3
		c-0.7,0.1-1.4,0.2-2.2,0.2c-1.7,0-2.9-0.3-3.7-0.9c-0.7-0.6-1.1-1.6-1.1-3.2V29.8z M162.3,29.8h8.6v13.3c-0.4,0.1-0.9,0.2-1.6,0.3
		c-0.7,0.1-1.4,0.2-2.2,0.2c-1.7,0-2.9-0.3-3.7-0.9c-0.7-0.6-1.1-1.6-1.1-3.2V29.8z"/>
	<path class="st0" d="M201.8,30.9c0,2.7-0.6,5-1.7,7c-1.1,2-2.6,3.5-4.6,4.6c-2,1-4.3,1.6-7,1.6c-2.7,0-5-0.5-7-1.6
		c-2-1-3.6-2.6-4.7-4.5c-1.1-2-1.6-4.3-1.6-7c0-2.7,0.6-5,1.7-6.9c1.1-2,2.7-3.5,4.7-4.5c2-1.1,4.3-1.6,6.9-1.6c2.7,0,5,0.5,6.9,1.6
		c2,1.1,3.6,2.6,4.7,4.6S201.8,28.2,201.8,30.9z M188.5,24.5c-1.4,0-2.5,0.6-3.3,1.7c-0.8,1.1-1.2,2.6-1.2,4.7
		c0,2.1,0.4,3.7,1.2,4.8c0.8,1.1,1.9,1.6,3.3,1.6c1.4,0,2.5-0.5,3.3-1.6c0.8-1.1,1.2-2.7,1.2-4.8c0-2-0.4-3.5-1.2-4.7
		C191,25.1,189.9,24.5,188.5,24.5z"/>
	<path class="st0" d="M223.3,29.3c-0.3,1.6-0.7,3.2-1.2,4.9c-0.5,1.7-0.9,3.3-1.4,4.7c-0.4,1.5-0.8,2.6-1,3.4
		c-0.4,0.4-1.1,0.7-1.9,1c-0.8,0.3-1.8,0.4-2.9,0.4c-1.4,0-2.6-0.2-3.6-0.6c-1-0.4-1.7-1-2-1.7c-0.3-0.7-0.6-1.6-1-2.8
		c-0.4-1.3-0.8-2.7-1.2-4.3c-0.4-1.6-0.7-3.3-1.1-5c-0.4-1.8-0.7-3.4-1-5.1c-0.3-1.7-0.6-3.1-0.8-4.5c0.5-0.5,1.1-0.9,1.9-1.2
		c0.8-0.4,1.7-0.6,2.6-0.6c1.2,0,2.1,0.3,2.9,0.8c0.8,0.5,1.3,1.4,1.4,2.7c0.3,2.6,0.6,4.7,0.9,6.4c0.2,1.7,0.4,3.1,0.6,4.1
		c0.2,1,0.3,1.8,0.4,2.4c0.1,0.6,0.2,1,0.3,1.4h0.2c0.2-0.7,0.4-1.9,0.8-3.4c0.4-1.6,0.8-3.3,1.3-5.3c0.5-2,1-4,1.5-6
		c0.7-0.4,1.4-0.7,2-0.9c0.7-0.2,1.5-0.3,2.4-0.3c1.2,0,2.2,0.2,3,0.6c0.8,0.4,1.4,0.9,1.6,1.7c0.5,2,1,3.9,1.5,5.7
		c0.5,1.8,0.9,3.4,1.2,4.8c0.4,1.4,0.6,2.4,0.8,3.1h0.3c0.4-2.6,0.7-5.3,1.1-8.1c0.4-2.8,0.7-5.7,1-8.6c1.2-0.7,2.5-1.1,4-1.1
		c1.2,0,2.2,0.3,2.9,0.8c0.8,0.5,1.2,1.4,1.2,2.6c0,0.5-0.1,1.4-0.3,2.4c-0.2,1-0.4,2.2-0.7,3.6c-0.3,1.4-0.6,2.8-1,4.3
		c-0.3,1.5-0.7,2.9-1.1,4.3c-0.3,1.4-0.7,2.6-1,3.8c-0.3,1.1-0.6,1.9-0.8,2.5c-0.4,0.4-1.2,0.7-2.2,1c-1,0.3-2,0.4-3.1,0.4
		c-2.8,0-4.5-0.7-5-2.1c-0.3-0.8-0.6-1.9-1.1-3.2c-0.4-1.4-0.9-2.8-1.3-4.4C224,32.4,223.6,30.8,223.3,29.3z"/>
	<path class="st1" d="M270.1,22.4l-12.6-6.2c-3.9-1.9-5.8-2.9-7.2-2c-1.4,0.9-1.4,3-1.4,7.4v12.6c0,4.4,0,6.6,1.4,7.4
		c1.4,0.9,3.4-0.1,7.3-2.1l12.6-6.4c4.7-2.4,7-3.6,7-5.4C277.1,25.9,274.8,24.8,270.1,22.4z"/>
	<rect x="45.9" y="12" class="st2" width="16" height="32"/>
	<path class="st3" d="M13.9,22c0-5.5,4.5-10,10-10h22v32h-22c-5.5,0-10-4.5-10-10V22z"/>
</g>
</svg>
